<svg xmlns="http://www.w3.org/2000/svg" viewBox="0 0 168.27 185.67"><defs><style>.cls-1{fill:none;}.cls-2{fill:#b6daa0;}.cls-3{fill:#eea1a6;}.cls-4{fill:#fff;}</style></defs><title>inspiration</title><g id="Layer_2" data-name="Layer 2"><g id="Layer_1-2" data-name="Layer 1"><path class="cls-1" d="M64.53,53.67c-.63.13-.37,1.09.26,1,2.33-.48,4.45-.38,5.61,2.1.33.7.41,1.46.81,2.14a8.58,8.58,0,0,0,4.16,3.43,2,2,0,0,0,2.38-.72,4.44,4.44,0,0,0,.57-2,8.66,8.66,0,0,1,.06-1.45c.43-1.29,1.66-1.54,3.12-.8.57.29,1.07-.57.5-.87-1.09-.55-3.18-1-4.23-.11a1.56,1.56,0,0,0-.42.85c-.25.88.57,2.21-.14,3-1.09,1.17-2.36.78-3.37,0-1.53-1.2-2-2.68-2.7-4.39a3.79,3.79,0,0,0-1.19-1.68,3.63,3.63,0,0,0-1.11-.56.56.56,0,0,1-.49-.13A9.67,9.67,0,0,0,64.53,53.67Z"/><path class="cls-1" d="M53.48,145c3.9,1.84,10.31,3.49,15.89-1.41a2.5,2.5,0,0,1,3.22-.06c.1-.85.17-1.6.22-2.26h0a90.23,90.23,0,0,1-10.47.73,38,38,0,0,1-6.25-.46A7.87,7.87,0,0,1,53.48,145Z"/><path class="cls-1" d="M99.68,64.82c-1.47.63-3.27,1.76-4.89,1.2-1.23-.41-1.53-1.54-2.42-2.24-1.37-1.08-2.87-.64-4.3.08-.58.29-.07,1.15.5.86a3.17,3.17,0,0,1,3.7.6,6.61,6.61,0,0,1,.47.58,4.31,4.31,0,0,0,2.08,1.16c1.87.44,3.7-.67,5.37-1.37C100.78,65.44,100.27,64.58,99.68,64.82Z"/><path class="cls-1" d="M103.12,66.13c1.34-.09,3.71.13,4.33-1.44.4-1-.3-1.85-.55-2.78a2.4,2.4,0,0,1,3-3c.63.14.9-.83.27-1a3.43,3.43,0,0,0-4.1,2,3.62,3.62,0,0,0,.06,2.59,4,4,0,0,1,.35.84c.15,1.38-.53,1.43-1.29,1.54s-1.36.1-2,.15S102.47,66.17,103.12,66.13Z"/><path class="cls-1" d="M93.58,55.36a5.33,5.33,0,0,1-1.17-1.6c-.34-.55-1.21,0-.86.5a6,6,0,0,0,1.47,2c.37.25,1.17.36,1.51.55a4.57,4.57,0,0,1,2,1.92c1,2,1,3.66,3.41,4.47.61.21.87-.76.26-1-2.44-.83-2-3.65-3.7-5.21a7,7,0,0,0-1.92-1.33A8.52,8.52,0,0,1,93.58,55.36Z"/><path class="cls-1" d="M63.37,158.77c-.12.83.26,2.44,2,4.69a44.16,44.16,0,0,0,6.29-14.74C66.77,155.24,64.49,157.76,63.37,158.77Z"/><path class="cls-1" d="M156,70.91h0c-3.72-.54-10-.21-17.45,5a63,63,0,0,1-3.44,18.86C143.82,83.82,151.8,75.24,156,70.91Z"/><path class="cls-1" d="M122.28,172.12a69.79,69.79,0,0,0,12.37-7,49.9,49.9,0,0,0,4.55-3.71c-14.2.87-17.61-5.15-18-5.92a2.5,2.5,0,0,1,.14-2.44,2.47,2.47,0,0,1,2.13-1.16h.41a36.19,36.19,0,0,0,30.58-16.4c-10.87.67-21.2-5.21-21.71-5.5a2.5,2.5,0,0,1,1.27-4.66h.26c20,0,26.29-15.28,28.19-23.23a61,61,0,0,1-11.37,2.76,2.5,2.5,0,0,1-2-4.32c11.14-10.19,11.35-20.62,10.43-26.06a337.06,337.06,0,0,0-23.71,27.64,224.12,224.12,0,0,0-19,28.75v0h0c.74,12.32,4.12,33.26,5.46,41.2Z"/><path class="cls-1" d="M30.08,129.64a2.51,2.51,0,0,1,2.14.15,2.48,2.48,0,0,1,1.24,1.74c.08.46.55,4-3.56,8.33a20.07,20.07,0,0,0,16.47-3c-4-3.82-6.69-9.7-8.54-16.51-11.28,1.33-22.22,6.08-28.53,9.27C15.17,130.87,24,132,30.08,129.64Z"/><path class="cls-1" d="M19.37,116.09a33.13,33.13,0,0,1,4.87,2.12h0a76.93,76.93,0,0,1,7.87-2A31.82,31.82,0,0,0,19.37,116.09Z"/><path class="cls-1" d="M110,133c-.08-.93-.13-1.83-.18-2.69h0a46.59,46.59,0,0,1-23.25,9.21c-2,.18-4.29.47-6.68.79,0,.86-.09,1.94-.21,3.2v0c-.09.91-.22,1.91-.39,3q-.06.45-.15.9c0,.31-.11.63-.17,1-.1.55-.22,1.11-.35,1.69-.07.32-.15.65-.23,1s-.15.62-.24.93-.12.48-.19.72c-.15.58-.33,1.16-.52,1.75q-.12.42-.27.84h0a48.33,48.33,0,0,1-6.64,13.1,41.15,41.15,0,0,1-3.14,3.89q-.59.66-1.23,1.31t-1.3,1.28a65.41,65.41,0,0,0,10.28,2.64c.4.08.81.14,1.23.21,2,.31,4.34.58,6.86.73a77.56,77.56,0,0,0,16.55-.82c1.62-.24,3.29-.55,5-.93a84,84,0,0,0,10.66-3.08c-1-5.73-3.12-18.94-4.5-30.78C110.52,139.41,110.18,136,110,133Z"/><path class="cls-1" d="M88.06,54.11a2.1,2.1,0,0,0,2.12-.76,2.74,2.74,0,0,0,.37-2.09c-.08-.56-.48-1.08-.54-1.63-.64-1.21-.07-2.16,1.72-2.83a9,9,0,0,1,2.26.12c.63.09.91-.88.27-1-2.31-.33-6-.38-5.51,2.9a10.12,10.12,0,0,0,.44,1.42c.44,1.38.82,1.46-.84,2s-1.14.27-2.48-.22a4.22,4.22,0,0,0-.77-.22A4.32,4.32,0,0,0,81.54,53c-.5.41.21,1.12.7.71C84.7,51.61,85.85,53.81,88.06,54.11Z"/><path class="cls-1" d="M77.8,133.54c2.89-.38,5.62-.75,8.12-1,11.46-1,23.13-8.32,32-20a67.72,67.72,0,0,0,13-29.92h0a51.13,51.13,0,0,0,.62-7.61h0v-.12a45.35,45.35,0,1,0-90.69,0c0,9.38,0,26.59,2.86,40.12a.13.13,0,0,0,0,.06c.3,1.44.64,2.84,1,4.18.07.26.15.51.22.76,1.6,5.46,3.82,9.91,6.9,12.39a8.18,8.18,0,0,0,.91.67,9.42,9.42,0,0,0,2.53,1.09c3.83,1.1,9.42.86,15,.27,1.81-.2,3.61-.42,5.36-.66ZM58.92,55.43a3,3,0,0,0,0,1.19c.22,1.16,1.49,1.59,2.48,2,.23.08,1,.19,1.19.37l.24,1.64h-.67c-.78.16-1.59-.13-2.39.15A2.36,2.36,0,0,0,58.25,62a3.29,3.29,0,0,0-.58-.2,4.58,4.58,0,0,0-3.11.57,5,5,0,0,0-1.1.86A23,23,0,0,1,58.92,55.43ZM52.7,71.57a13.38,13.38,0,0,1,.11-6.29,13.12,13.12,0,0,1,.88-1c1.69-1.68,4.62-2,5.52.63A11,11,0,0,0,60,67.15c1.87,3.06,4.93.49,5.82-1.85.23-.61-.73-.87-1-.27C64.42,67,63,67.28,60.58,66c-.12-.36-.23-.73-.33-1.1a8.44,8.44,0,0,0-.4-1.2,3.74,3.74,0,0,0-.75-1.11c.65-2.25,6.16.33,5.65-2.88a2.12,2.12,0,0,0-1.37-1.56c-.86-.41-2.09-.43-2.83-1.06-1.12-.94-.56-2.21.08-3.22A42.57,42.57,0,0,1,76,45.9c-.16,1.17.26,2.5-.38,3.66-1.13,2-3.35.43-5.06,1a4.72,4.72,0,0,0-2.35,2.23.45.45,0,0,0,.09.59,2.72,2.72,0,0,1,.49.13.51.51,0,0,0,.29-.22c1-1.72,1.58-1.77,3.73-1.55.47,0,.64.25,1.16.21a3.19,3.19,0,0,0,1.93-1.14A4.92,4.92,0,0,0,77.13,48c0-.5-.08-1.08,0-1.57a2.78,2.78,0,0,1,.33-1l1.48-.37c1.31-.3,2.62-.54,3.91-.73a2.78,2.78,0,0,0-.31,1.72,1.69,1.69,0,0,0,.64,1c.18.15,3.08,2.07,2,2.47-.59.23-.33,1.2.27,1a1.47,1.47,0,0,0,.69-2.27A5,5,0,0,0,84.76,47c-.51-.37-1.21-.8-1.22-1.53a2.38,2.38,0,0,1,.55-1.26,41.21,41.21,0,0,1,16,1,2.12,2.12,0,0,0-.62.81c-.52,1.25.58,2-1.28,2.69-1.07.39-1.7.11-2.54,1.17-.4.5.3,1.21.7.71,1-1.25,3-.14,3.8-1.7.4-.82.14-1.55.6-2.38a1.53,1.53,0,0,1,.91-.81,26.13,26.13,0,0,1,4.15,1.82,1.46,1.46,0,0,0-.53,1.11c-.11,1.51,1.24,3.3-.46,4.33-1.24.75-4.07,1.12-5.33.34a.5.5,0,0,0-.51.86c1.81,1.12,5.31.5,7-.63a2,2,0,0,0,.85-2.14c-.09-.61-.77-1.88-.57-2.45a1.14,1.14,0,0,1,.79-.69,15,15,0,0,1,7,9.2,31.21,31.21,0,0,1,.91,11.2c-2.07,1.73-2.35-.72-3.83-1.22-1-.34-2.46.59-3.27,1.11-.54.35,0,1.22.5.87a5.65,5.65,0,0,1,1.63-.85,1.26,1.26,0,0,1,1.39.38,5.49,5.49,0,0,0,1.39,1.2,2.07,2.07,0,0,0,2-.15,22,22,0,0,1-4.33,10.32,9.37,9.37,0,0,0-1.82-3.51c-1.93-2.07-8,.2-7.32-3.85.11-.62-.86-.9-1-.26a3.31,3.31,0,0,0,2.7,4c2.12.36,4-.84,5.47,1.73a13.31,13.31,0,0,1,1.16,2.9c-1.81,3.72-6.05,6.91-11.47,8.16-8.08,1.85-15.71-1.35-17-7.15l0-.22c-.84-.4-1.67-.8-2.47-1.15,2.28-.15,4.56-.31,6.83-.52a23.37,23.37,0,0,0,9.43-2.47c.57-.31.06-1.18-.5-.87-3.3,1.81-6.92,2.21-10.61,2.48l-7.52.52A5.47,5.47,0,0,0,75,80C62.64,80,54.62,80,52.7,71.57Z"/><path class="cls-1" d="M76.25,69.84c-1-.52-2-1.14-3.08-1.57a1.37,1.37,0,0,0-1.42,0c-.53.46-.22,1.31-.13,1.88.2,1.34.32,3.31-1.34,3.75a.5.5,0,0,0,.27,1A3.09,3.09,0,0,0,72.73,72c0-.47-.43-2.63,0-2.8.2-.08,1.27.64,1.48.75l1.48.76C76.31,71,76.82,70.13,76.25,69.84Z"/><path class="cls-1" d="M83.26,75.22a7,7,0,0,0,2.61-2.12c.73-.91.89-1.83,2.45-1.89,1.1,0,2.49.88,3.38,1.4a.5.5,0,0,0,.5-.86c-1.37-.81-3.85-2.28-5.48-1.38-.61.34-.89,1.07-1.26,1.61-.78,1.13-4.73,4.37-4.34.79.07-.63-.93-.63-1,0C79.85,75.25,80.77,76.31,83.26,75.22Z"/><path class="cls-1" d="M81.93,64.79c.46.27,1.2.49.94,1.18-.16.42-.56.73-.72,1.17-.22.6.74.87,1,.27.31-.82,1.19-1.29.76-2.27a2,2,0,0,0-.68-.77c-.37-.27-1.49-.65-1.39-1.24s-.84-.89-1-.26A1.82,1.82,0,0,0,81.93,64.79Z"/><path class="cls-1" d="M62.23,71.24c-1.06-.33-2.66-.39-2.81,1.08a2.78,2.78,0,0,0,.11.86c.08.33.47,1,.4,1.34.13.23,0,.31-.35.26a8,8,0,0,1-1.09.17,2.44,2.44,0,0,1-1.91-.6c-.48-.44-1.19.27-.71.71a4.33,4.33,0,0,0,4.49.55.84.84,0,0,0,.61-1,7.14,7.14,0,0,0-.36-1.3c-.07-.23-.13-.46-.19-.68A1.23,1.23,0,0,1,62,72.2C62.58,72.39,62.85,71.43,62.23,71.24Z"/><path class="cls-2" d="M158.55,129.74c-4.94,1.47-10.33.69-14.68-.57,22.21-5.76,24.37-31.06,24.39-31.35a2.5,2.5,0,0,0-4-2.17,20.67,20.67,0,0,1-6.35,2.68c11.3-14.78,5.63-28.6,5.17-29.68a.08.08,0,0,1,0,0,2.08,2.08,0,0,0-.32-.51.76.76,0,0,0-.11-.14l-.15-.15a2.5,2.5,0,0,0-.32-.25l-.25-.15-.11-.06h0c-1.31-.6-10.89-4.6-23.38,2.76.15,1.59.22,3.21.22,4.84,0,.33,0,.65,0,1h0c7.48-5.22,13.73-5.55,17.45-5h0c-4.2,4.33-12.19,12.91-20.89,23.87a76.57,76.57,0,0,1-18.37,29.64h0a49.21,49.21,0,0,0,.07,6.46v0h0v0a224.12,224.12,0,0,1,19-28.75,337.06,337.06,0,0,1,23.71-27.64c.92,5.44.71,15.87-10.43,26.06a2.5,2.5,0,0,0,2,4.32,61,61,0,0,0,11.37-2.76c-1.9,8-8.15,23.23-28.19,23.23H134a2.5,2.5,0,0,0-1.27,4.66c.51.29,10.84,6.17,21.71,5.5a36.19,36.19,0,0,1-30.58,16.4h-.41a2.47,2.47,0,0,0-2.13,1.16,2.5,2.5,0,0,0-.14,2.44c.38.77,3.79,6.79,18,5.92a49.9,49.9,0,0,1-4.55,3.71,69.79,69.79,0,0,1-12.37,7h0c.32,2,.53,3.11.54,3.18a3.52,3.52,0,0,1-.34,2.2h0c18.59-7.8,24.78-17.52,25.1-18.05a2.53,2.53,0,0,0-.06-2.72,2.5,2.5,0,0,0-2.5-1c-5.93,1-10.12,1-13,.47,21.19-4,29.49-22.82,29.58-23a2.5,2.5,0,0,0-3-3.38Z"/><path class="cls-2" d="M131,82.67h0a51.11,51.11,0,0,0,.62-7.61h0A51.13,51.13,0,0,1,131,82.67Z"/><path class="cls-2" d="M65.38,163.47h0c-1.76-2.25-2.14-3.86-2-4.69,1.12-1,3.4-3.54,8.3-10.05h0s0,0,0,0a50.3,50.3,0,0,0,.9-5.18h0a2.5,2.5,0,0,0-3.22.06c-5.58,4.9-12,3.25-15.89,1.41a7.87,7.87,0,0,0,2.61-3.47,20.34,20.34,0,0,1-4.88-1.36,6.93,6.93,0,0,1-3.64,2.33,2.5,2.5,0,0,0-.72,4.35c3.25,2.52,9.57,5.58,16.19,4.83A34.78,34.78,0,0,1,60,155.13a2.47,2.47,0,0,0-.85.82c-.27.43-1.53,2.76-.05,6.55a17.56,17.56,0,0,0,3.16,5,37.42,37.42,0,0,0,3.15-4Z"/><path class="cls-2" d="M46.37,136.9a20.07,20.07,0,0,1-16.47,3c4.11-4.34,3.64-7.87,3.56-8.33a2.48,2.48,0,0,0-1.24-1.74,2.51,2.51,0,0,0-2.14-.15c-6,2.38-14.91,1.23-20.78,0,6.31-3.19,17.25-7.94,28.53-9.27-.24-.89-.47-1.8-.68-2.72a36.51,36.51,0,0,0-5-1.45h0a76.93,76.93,0,0,0-7.87,2c.5.27.84.47,1,.55a2.5,2.5,0,0,1-1.28,4.65,2.47,2.47,0,0,1-1.28-.35,27.91,27.91,0,0,0-5.49-2.41h0a103.74,103.74,0,0,0-16,7.76,2.49,2.49,0,0,0,.57,4.5c.66.21,14.25,4.43,25.24,2.68a16.9,16.9,0,0,1-3.36,3.11,2.5,2.5,0,0,0,.25,4.2,24.2,24.2,0,0,0,9.88,2.55,25.52,25.52,0,0,0,17-5.53A12.79,12.79,0,0,1,49,139,17,17,0,0,1,46.37,136.9Z"/><path class="cls-2" d="M22.67,123.06a2.51,2.51,0,0,0,3.43-.87,2.5,2.5,0,0,0-.87-3.43c-.14-.08-.48-.28-1-.55h0a33.13,33.13,0,0,0-4.87-2.12,31.82,31.82,0,0,1,12.75.13h0a36.51,36.51,0,0,1,5,1.45c-.17-.72-.32-1.44-.47-2.18-.23-1.12-.44-2.26-.63-3.41-13-3.71-23.84.07-26.73,2.91a2.94,2.94,0,0,0-.79,3.5c.35.71,1.29,1.84,3.58,1.51a12.06,12.06,0,0,1,5.06.65h0A27.91,27.91,0,0,1,22.67,123.06Z"/><path class="cls-3" d="M122.81,175.31c0-.07-.22-1.23-.54-3.18h0c-1.34-7.94-4.72-28.88-5.46-41.2h0v0a49.21,49.21,0,0,1-.07-6.46h0a76.57,76.57,0,0,0,18.37-29.64,63,63,0,0,0,3.44-18.86h0c0-.33,0-.65,0-1,0-1.63-.07-3.25-.22-4.84h0A52.35,52.35,0,0,0,33.89,74.93c0,9.91,0,24.29,2.16,37.15.19,1.15.4,2.29.63,3.41.15.74.3,1.46.47,2.18.21.92.44,1.83.68,2.72,1.85,6.81,4.56,12.69,8.54,16.51A17,17,0,0,0,49,139a12.79,12.79,0,0,0,1.71.93,4.31,4.31,0,0,0,.49.22,20.34,20.34,0,0,0,4.88,1.36,38,38,0,0,0,6.25.46,90.23,90.23,0,0,0,10.47-.73h0c0,.66-.12,1.42-.22,2.26h0a50.3,50.3,0,0,1-.9,5.18s0,0,0,0h0a44.16,44.16,0,0,1-6.29,14.74h0a37.42,37.42,0,0,1-3.15,4h0a37.32,37.32,0,0,1-6.15,5.56,3.5,3.5,0,0,0,.38,5.91c.74.4,12.66,6.68,31.22,6.68a89.28,89.28,0,0,0,33-6.5,3.52,3.52,0,0,0,1.82-1.66h0A3.52,3.52,0,0,0,122.81,175.31ZM70.36,134.47c-5.61.59-11.2.83-15-.27a9.42,9.42,0,0,1-2.53-1.09,8.18,8.18,0,0,1-.91-.67c-3.08-2.48-5.3-6.93-6.9-12.39-.07-.25-.15-.5-.22-.76-.37-1.34-.71-2.74-1-4.18a.13.13,0,0,1,0-.06c-2.86-13.53-2.86-30.74-2.86-40.12a45.35,45.35,0,1,1,90.69,0v.12h0a51.11,51.11,0,0,1-.62,7.61h0a67.72,67.72,0,0,1-13,29.92c-8.9,11.67-20.57,19-32,20-2.5.22-5.23.59-8.12,1l-2.08.27C74,134.05,72.17,134.27,70.36,134.47Zm34.4,42.26c-1.71.38-3.38.69-5,.93a77.56,77.56,0,0,1-16.55.82c-2.52-.15-4.82-.42-6.86-.73-.42-.07-.83-.13-1.23-.21a65.41,65.41,0,0,1-10.28-2.64q.67-.64,1.3-1.28t1.23-1.31a41.15,41.15,0,0,0,3.14-3.89,48.33,48.33,0,0,0,6.64-13.1h0q.15-.42.27-.84c.19-.59.37-1.17.52-1.75.07-.24.13-.48.19-.72s.17-.62.24-.93.16-.66.23-1c.13-.58.25-1.14.35-1.69.06-.33.12-.65.17-1s.11-.6.15-.9c.17-1.07.3-2.07.39-3v0c.12-1.26.18-2.34.21-3.2,2.39-.32,4.65-.61,6.68-.79a46.59,46.59,0,0,0,23.25-9.21h0c0,.86.1,1.76.18,2.69.21,3,.55,6.38,1,9.85,1.38,11.84,3.53,25,4.5,30.78A84,84,0,0,1,104.76,176.73Z"/><path class="cls-3" d="M143.74,45.14a3.49,3.49,0,0,0,2.47-1l7.37-7.36a3.5,3.5,0,0,0-4.95-5l-7.37,7.36a3.5,3.5,0,0,0,2.47,6Z"/><path class="cls-3" d="M27,32l8.29,6.31a3.5,3.5,0,0,0,4.24-5.57l-8.29-6.31A3.5,3.5,0,0,0,27,32Z"/><path class="cls-3" d="M117.32,24.21a3.5,3.5,0,0,0,4.88-.8l6.08-8.46a3.5,3.5,0,1,0-5.69-4.08l-6.08,8.46A3.5,3.5,0,0,0,117.32,24.21Z"/><path class="cls-3" d="M55.55,20.14a3.5,3.5,0,0,0,5.83-3.88L55.61,7.59a3.5,3.5,0,0,0-5.83,3.88Z"/><path class="cls-3" d="M88.54,17.34l.36,0a3.5,3.5,0,0,0,3.48-3.15l1-10.36a3.5,3.5,0,0,0-7-.71l-1,10.36A3.5,3.5,0,0,0,88.54,17.34Z"/><path class="cls-3" d="M57.67,61.83a3.29,3.29,0,0,1,.58.2,2.36,2.36,0,0,1,1.49-1.31c.8-.28,1.61,0,2.39-.15h.67l-.24-1.64c-.15-.18-1-.29-1.19-.37-1-.36-2.26-.79-2.48-2a3,3,0,0,1,0-1.19,23,23,0,0,0-5.46,7.83,5,5,0,0,1,1.1-.86A4.58,4.58,0,0,1,57.67,61.83Z"/><path class="cls-3" d="M83.83,79.69c3.69-.27,7.31-.67,10.61-2.48.56-.31,1.07.56.5.87a23.37,23.37,0,0,1-9.43,2.47c-2.27.21-4.55.37-6.83.52.8.35,1.63.75,2.47,1.15l0,.22c1.33,5.8,9,9,17,7.15,5.42-1.25,9.66-4.44,11.47-8.16a13.31,13.31,0,0,0-1.16-2.9c-1.48-2.57-3.35-1.37-5.47-1.73a3.31,3.31,0,0,1-2.7-4c.1-.64,1.07-.36,1,.26-.66,4,5.39,1.78,7.32,3.85a9.37,9.37,0,0,1,1.82,3.51,22,22,0,0,0,4.33-10.32,2.07,2.07,0,0,1-2,.15,5.49,5.49,0,0,1-1.39-1.2,1.26,1.26,0,0,0-1.39-.38,5.65,5.65,0,0,0-1.63.85c-.54.35-1-.52-.5-.87.81-.52,2.25-1.45,3.27-1.11,1.48.5,1.76,2.95,3.83,1.22a31.21,31.21,0,0,0-.91-11.2,15,15,0,0,0-7-9.2,1.14,1.14,0,0,0-.79.69c-.2.57.48,1.84.57,2.45A2,2,0,0,1,106,53.6c-1.7,1.13-5.2,1.75-7,.63a.5.5,0,0,1,.51-.86c1.26.78,4.09.41,5.33-.34,1.7-1,.35-2.82.46-4.33a1.46,1.46,0,0,1,.53-1.11,26.13,26.13,0,0,0-4.15-1.82,1.53,1.53,0,0,0-.91.81c-.46.83-.2,1.56-.6,2.38-.75,1.56-2.8.45-3.8,1.7-.4.5-1.1-.21-.7-.71.84-1.06,1.47-.78,2.54-1.17,1.86-.69.76-1.44,1.28-2.69a2.12,2.12,0,0,1,.62-.81,41.21,41.21,0,0,0-16-1,2.38,2.38,0,0,0-.55,1.26c0,.73.71,1.16,1.22,1.53a5,5,0,0,1,1.43,1.25,1.47,1.47,0,0,1-.69,2.27c-.6.23-.86-.74-.27-1,1-.4-1.87-2.32-2-2.47a1.69,1.69,0,0,1-.64-1,2.78,2.78,0,0,1,.31-1.72c-1.29.19-2.6.43-3.91.73l-1.48.37a2.78,2.78,0,0,0-.33,1c-.08.49,0,1.07,0,1.57a4.92,4.92,0,0,1-1.18,2.83A3.19,3.19,0,0,1,74,52c-.52,0-.69-.16-1.16-.21-2.15-.22-2.68-.17-3.73,1.55a.51.51,0,0,1-.29.22,3.63,3.63,0,0,1,1.11.56,3.79,3.79,0,0,1,1.19,1.68c.7,1.71,1.17,3.19,2.7,4.39,1,.8,2.28,1.19,3.37,0,.71-.77-.11-2.1.14-3a1.56,1.56,0,0,1,.42-.85c1.05-.93,3.14-.44,4.23.11.57.3.07,1.16-.5.87-1.46-.74-2.69-.49-3.12.8a8.66,8.66,0,0,0-.06,1.45,4.44,4.44,0,0,1-.57,2,2,2,0,0,1-2.38.72,8.58,8.58,0,0,1-4.16-3.43c-.4-.68-.48-1.44-.81-2.14-1.16-2.48-3.28-2.58-5.61-2.1-.63.13-.89-.83-.26-1a9.67,9.67,0,0,1,3.82-.24.45.45,0,0,1-.09-.59,4.72,4.72,0,0,1,2.35-2.23c1.71-.62,3.93,1,5.06-1,.64-1.16.22-2.49.38-3.66a42.57,42.57,0,0,0-15.42,8c-.64,1-1.2,2.28-.08,3.22.74.63,2,.65,2.83,1.06a2.12,2.12,0,0,1,1.37,1.56c.51,3.21-5,.63-5.65,2.88a3.74,3.74,0,0,1,.75,1.11,8.44,8.44,0,0,1,.4,1.2c.1.37.21.74.33,1.1,2.42,1.26,3.84.93,4.28-1,.23-.6,1.19-.34,1,.27-.89,2.34-4,4.91-5.82,1.85a11,11,0,0,1-.79-2.24c-.9-2.66-3.83-2.31-5.52-.63a13.12,13.12,0,0,0-.88,1,13.38,13.38,0,0,0-.11,6.29C54.62,80,62.64,80,75,80a5.47,5.47,0,0,1,1.28.18Zm19.29-14.56c.67,0,1.36-.06,2-.15s1.44-.16,1.29-1.54a4,4,0,0,0-.35-.84A3.62,3.62,0,0,1,106,60a3.43,3.43,0,0,1,4.1-2c.63.14.36,1.11-.27,1a2.4,2.4,0,0,0-3,3c.25.93,1,1.77.55,2.78-.62,1.57-3,1.35-4.33,1.44C102.47,66.17,102.48,65.17,103.12,65.13Zm-2.93.56c-1.67.7-3.5,1.81-5.37,1.37a4.31,4.31,0,0,1-2.08-1.16,6.61,6.61,0,0,0-.47-.58,3.17,3.17,0,0,0-3.7-.6c-.57.29-1.08-.57-.5-.86,1.43-.72,2.93-1.16,4.3-.08.89.7,1.19,1.83,2.42,2.24,1.62.56,3.42-.57,4.89-1.2C100.27,64.58,100.78,65.44,100.19,65.69ZM96.47,57c1.72,1.56,1.26,4.38,3.7,5.21.61.21.35,1.18-.26,1-2.38-.81-2.37-2.5-3.41-4.47a4.57,4.57,0,0,0-2-1.92c-.34-.19-1.14-.3-1.51-.55a6,6,0,0,1-1.47-2c-.35-.54.52-1,.86-.5a5.33,5.33,0,0,0,1.17,1.6,8.52,8.52,0,0,0,1,.28A7,7,0,0,1,96.47,57Zm-14.23-3.3c-.49.41-1.2-.3-.7-.71a4.32,4.32,0,0,1,3.56-1.14,4.22,4.22,0,0,1,.77.22c1.34.49.8.76,2.48.22s1.28-.61.84-2a10.12,10.12,0,0,1-.44-1.42c-.47-3.28,3.2-3.23,5.51-2.9.64.09.36,1.06-.27,1a9,9,0,0,0-2.26-.12c-1.79.67-2.36,1.62-1.72,2.83.06.55.46,1.07.54,1.63a2.74,2.74,0,0,1-.37,2.09,2.1,2.1,0,0,1-2.12.76C85.85,53.81,84.7,51.61,82.24,53.67Zm-1.4,9.2c.12-.63,1.08-.36,1,.26s1,1,1.39,1.24a2,2,0,0,1,.68.77c.43,1-.45,1.45-.76,2.27-.22.6-1.18.33-1-.27.16-.44.56-.75.72-1.17.26-.69-.48-.91-.94-1.18A1.82,1.82,0,0,1,80.84,62.87Zm-.72,9.9c.07-.63,1.07-.63,1,0-.39,3.58,3.56.34,4.34-.79.37-.54.65-1.27,1.26-1.61,1.63-.9,4.11.57,5.48,1.38a.5.5,0,0,1-.5.86c-.89-.52-2.28-1.45-3.38-1.4-1.56.06-1.72,1-2.45,1.89a7,7,0,0,1-2.61,2.12C80.77,76.31,79.85,75.25,80.12,72.77ZM62,72.2a1.23,1.23,0,0,0-1.55.43c.06.22.12.45.19.68a7.14,7.14,0,0,1,.36,1.3.84.84,0,0,1-.61,1,4.33,4.33,0,0,1-4.49-.55c-.48-.44.23-1.15.71-.71a2.44,2.44,0,0,0,1.91.6,8,8,0,0,0,1.09-.17c.36,0,.48,0,.35-.26.07-.32-.32-1-.4-1.34a2.78,2.78,0,0,1-.11-.86c.15-1.47,1.75-1.41,2.81-1.08C62.85,71.43,62.58,72.39,62,72.2Zm13.77-1.5-1.48-.76c-.21-.11-1.28-.83-1.48-.75-.48.17,0,2.33,0,2.8a3.09,3.09,0,0,1-2.18,2.9.5.5,0,0,1-.27-1c1.66-.44,1.54-2.41,1.34-3.75-.09-.57-.4-1.42.13-1.88a1.37,1.37,0,0,1,1.42,0c1,.43,2.06,1,3.08,1.57C76.82,70.13,76.31,71,75.74,70.7Z"/><path class="cls-4" d="M68.35,53.43a.56.56,0,0,0,.49.13A2.72,2.72,0,0,0,68.35,53.43Z"/></g></g></svg>