<svg xmlns="http://www.w3.org/2000/svg" viewBox="0 0 167.83 184.09"><defs><style>.cls-1{fill:#eea1a6;}.cls-2{fill:none;}.cls-3{fill:#b6daa0;}</style></defs><title>Leave a note</title><g id="Layer_2" data-name="Layer 2"><g id="Layer_1-2" data-name="Layer 1"><path class="cls-1" d="M52.33,48.48a3.47,3.47,0,0,0-.06-.51s0-.08,0-.13a3.49,3.49,0,0,0-.2-.62v0S52,47.09,52,47a3.49,3.49,0,0,0-.22-.4l-.15-.2a3.48,3.48,0,0,0-.26-.3L51.15,46a3.48,3.48,0,0,0-.31-.24l-.2-.14a3.51,3.51,0,0,0-.38-.19l-.2-.09,0,0c-16.57-6-42.47-5.79-43.56-5.78l-.2,0-.3,0-.36.08-.28.08L5,39.87,4.73,40a3.5,3.5,0,0,0-.31.21l-.22.17a3.51,3.51,0,0,0-.33.34l-.12.12v0a3.49,3.49,0,0,0-.36.57s0,.09-.05.13a3.46,3.46,0,0,0-.19.49c0,.09,0,.19-.06.29s-.05.21-.06.32L0,72.29a3.5,3.5,0,0,0,4.64,3.66c13.52-4.72,39.93,1.49,40.2,1.56a3.5,3.5,0,0,0,4.29-3L52.31,49c0-.1,0-.19,0-.28S52.33,48.56,52.33,48.48Zm-14,.89L26.68,54.51,17,46.82A153.5,153.5,0,0,1,38.37,49.37ZM18,67.2A60.76,60.76,0,0,0,7.49,68l1.85-18.3L24,61.3a3.5,3.5,0,0,0,3.58.46l17-7.49-1.94,15.6A134.2,134.2,0,0,0,18,67.2Z"/><path class="cls-2" d="M122.49,53.76c1,3.79,2,7.88,3.21,12.17V62.09A12.44,12.44,0,0,0,122.49,53.76Z"/><path class="cls-2" d="M117.2,105.85a2.5,2.5,0,0,0-5-.32c-.76,11.77,2.78,20,6.77,25.43V120.14A36,36,0,0,1,117.2,105.85Z"/><path class="cls-2" d="M116.75,30.34c.37,1.6,1.14,4.88,2.23,9.37V30.34Z"/><path class="cls-2" d="M148.71,112.72a2.5,2.5,0,0,0,.87,1.79c2.61,2.24,4,6.21,4.62,10.58a11.8,11.8,0,0,1,5.42-2.71,54.37,54.37,0,0,0-8-13.17,11.62,11.62,0,0,0-2.16,1.66A2.5,2.5,0,0,0,148.71,112.72Z"/><path class="cls-2" d="M154.59,135.73c-4.42-8.94-8.93-21.16-13.15-34.16-.25-.1-.49-.21-.74-.3a3,3,0,0,1-1.07-.65c6.19,20.46,13.2,40.84,20,54.65.44-8.38-.26-19.06-5-24.29C154.7,132.61,154.67,134.22,154.59,135.73Z"/><path class="cls-2" d="M127.66,119.24v16.43c.1-.36.17-.6.19-.65a3,3,0,0,1,5.66,0C138,148.51,148,155.67,155,159.15c-7.08-13.95-18.36-46.32-25-68.07l-2.26.5Z"/><path class="cls-2" d="M137,87.38c-.9-3-1.78-6-2.63-9V82c1.6,5.81,3.68,13.38,4.4,15.78a3,3,0,0,1,1-1.55q-1-3.24-2-6.51a2.49,2.49,0,0,0,.9.55,19.83,19.83,0,0,1,6.79,4.21,34.14,34.14,0,0,1,8.88-.66A53.54,53.54,0,0,0,148.08,84a37.28,37.28,0,0,0-9.35,1.56A2.5,2.5,0,0,0,137,87.38Z"/><path class="cls-2" d="M133.28,55.35a21,21,0,0,1,1,4.48c1.17-.05,2.67-.14,3.63-.09-.42-1.32-1-2.88-1.69-4.6l.07.21C135.3,55.31,134.29,55.31,133.28,55.35Z"/><path class="cls-2" d="M93.58,100.15a3.17,3.17,0,0,1-2.86,2.77c-4.1.32-9.23,3-13.54,5.85A31.15,31.15,0,0,1,86.07,112a3.12,3.12,0,0,1-1.42,5.82,33.84,33.84,0,0,0-17.59,6,13,13,0,0,1,5.3,2.1,10.14,10.14,0,0,1,4.26,6.48,3.12,3.12,0,0,1-3.74,3.49C66,134.36,60.36,138.45,57,141.92c9.67.14,17.78-2.63,24.17-8.26,11.67-10.29,15.19-27.77,16.25-37.13h-7l1,.29A3.12,3.12,0,0,1,93.58,100.15Z"/><path class="cls-2" d="M85.32,138.34A39,39,0,0,1,63,147.91c-1.5.16-3,.22-4.61.24a13.86,13.86,0,0,0,5.08,2.33c4.25.94,9-.38,14-3.91a3.13,3.13,0,0,1,2.65-.44,6.64,6.64,0,0,1,4.27,4,6.54,6.54,0,0,1,.39,2.44c2.66-1.67,6.41-5.75,10.28-15.57a3.12,3.12,0,0,1,2.58-2h0a3.12,3.12,0,0,1,2.49.87V114C97.46,122.51,92.93,131.63,85.32,138.34Z"/><path class="cls-3" d="M97.66,135h0a3.12,3.12,0,0,0-2.58,2c-3.86,9.82-7.62,13.9-10.28,15.57a6.54,6.54,0,0,0-.39-2.44,6.64,6.64,0,0,0-4.27-4,3.13,3.13,0,0,0-2.65.44c-5,3.53-9.75,4.85-14,3.91a13.86,13.86,0,0,1-5.08-2.33c1.57,0,3.11-.08,4.61-.24a39,39,0,0,0,22.29-9.57c7.61-6.72,12.14-15.83,14.84-24.33V96.53H97.44c-1.06,9.37-4.58,26.84-16.25,37.13-6.39,5.64-14.5,8.4-24.17,8.26,3.35-3.48,8.94-7.57,15.86-6.09a3.12,3.12,0,0,0,3.74-3.49,10.14,10.14,0,0,0-4.26-6.48,13,13,0,0,0-5.3-2.1,33.84,33.84,0,0,1,17.59-6A3.12,3.12,0,0,0,86.07,112a31.15,31.15,0,0,0-8.89-3.22c4.31-2.82,9.44-5.53,13.54-5.85a3.17,3.17,0,0,0,2.86-2.77,3.12,3.12,0,0,0-2.19-3.32l-1-.29H65.81a3.11,3.11,0,0,0,4.29,4.1c1.56-.85,5.06-.74,8.9-.19a78.24,78.24,0,0,0-13.47,9.28,3.12,3.12,0,0,0,2.94,5.34,12.44,12.44,0,0,1,2.41-.46A38.94,38.94,0,0,0,56,125.31a3.12,3.12,0,0,0,3.11,5,20.13,20.13,0,0,1,6.06-.48c-10.46,2.48-16.66,12.68-17,13.22,0,0,0,.06,0,.09a3.11,3.11,0,0,0-.23.52s0,.09-.05.13a3.13,3.13,0,0,0-.11.68c0,.06,0,.12,0,.18a3.09,3.09,0,0,0,0,.52c0,.08,0,.16.05.23a3.08,3.08,0,0,0,.16.46c0,.05,0,.11.05.16l0,.07,0,.1c.19.34,4.86,8.37,13.87,10.39,5.17,1.16,10.6.13,16.17-3.06a9.44,9.44,0,0,1-.77,1.35A3.12,3.12,0,0,0,79,159.5a8.38,8.38,0,0,0,3.7.37c3.71-.39,9.61-3,15.33-14.19a12.07,12.07,0,0,1,.36,6.29,3.12,3.12,0,0,0,1.79,3.68V135.86A3.12,3.12,0,0,0,97.66,135Z"/><path class="cls-2" d="M115.83,49.86h-9.07a25.55,25.55,0,0,1,2.6,11.19V86.77l16.34-3.65V65.93c-1.16-4.29-2.23-8.38-3.21-12.17A12.52,12.52,0,0,0,115.83,49.86Z"/><path class="cls-2" d="M108.84,30.34V40l4.9.93a21.17,21.17,0,0,1,2.67.26H119V39.71c-1.09-4.49-1.86-7.76-2.23-9.37Z"/><circle class="cls-2" cx="113.91" cy="14.68" r="6"/><path class="cls-2" d="M127.66,45.52a4.32,4.32,0,0,1-.13,1,21.28,21.28,0,0,1,5.75,8.81c1,0,2,0,3,0l-.07-.21a56.29,56.29,0,0,0-8.52-14.37Z"/><path class="cls-2" d="M112.21,105.53a2.5,2.5,0,0,1,5,.32A36,36,0,0,0,119,120.14V93.52l-10.13,2.26V101a71.47,71.47,0,0,1,0,41.54v32.84H119V131C115,125.53,111.45,117.3,112.21,105.53Z"/><path class="cls-2" d="M134.39,70.63v7.74c.85,3,1.73,6,2.63,9a2.5,2.5,0,0,1,1.71-1.83A37.28,37.28,0,0,1,148.08,84,65.76,65.76,0,0,0,134.39,70.63Z"/><path class="cls-2" d="M137.73,89.75q1,3.26,2,6.51a2.93,2.93,0,0,1,1.08-.63c.74-.22,2.44-.71,4.6-1.12a19.83,19.83,0,0,0-6.79-4.21A2.49,2.49,0,0,1,137.73,89.75Z"/><path class="cls-2" d="M141.44,101.58c4.22,13,8.73,25.22,13.15,34.16.08-1.51.11-3.12.08-4.75a10.53,10.53,0,0,0-1-.93,3,3,0,0,1-.19-4.34c.08-.09.32-.32.68-.62-.64-4.37-2-8.34-4.62-10.58a2.5,2.5,0,0,1-.16-3.65,11.62,11.62,0,0,1,2.16-1.66A26.55,26.55,0,0,0,141.44,101.58Z"/><path class="cls-2" d="M90.17,45.31,83.29,44a17.07,17.07,0,0,0-16.74,17V87.84H76.93c6.8-3.53,15.38-5.41,23.74-1.4V61.06A17.09,17.09,0,0,0,90.17,45.31Zm1.3,25.22H73A2.28,2.28,0,1,1,73,66h18.5a2.28,2.28,0,1,1,0,4.55Z"/><path class="cls-3" d="M167.71,127c-.25-.86-5.34-18-17.4-27.13,3-.26,5.76-.08,7,.95a3,3,0,0,0,4.75-3,57.55,57.55,0,0,0-24.72-32.07,8.54,8.54,0,0,1,3.09.44A3,3,0,0,0,144.9,63c-.16-.87-3.56-18.29-17.24-30.92v7.31a48.82,48.82,0,0,1,8.52,15.75c.71,1.71,1.27,3.28,1.69,4.6-1,0-2.46,0-3.63.09a21,21,0,0,1,.14,2.26v3.29A44.65,44.65,0,0,1,150.07,84c-.66-.05-1.32-.07-2-.06a53.54,53.54,0,0,1,6.21,9.85,34.14,34.14,0,0,0-8.88.66c4.35,4,7.36,9.52,9.14,13.54a8.63,8.63,0,0,0-3,1.15,54.37,54.37,0,0,1,8,13.17,11.8,11.8,0,0,0-5.42,2.71,47.63,47.63,0,0,1,.46,5.9c4.74,5.24,5.44,15.92,5,24.29-6.83-13.81-13.85-34.2-20-54.65a3,3,0,0,0,1.07.65c.25.09.49.2.74.3q-.86-2.64-1.7-5.32a3,3,0,0,0-1,1.55c-.72-2.4-2.8-10-4.4-15.78V86.6c0,.12,0,.23,0,.35a4.35,4.35,0,0,1,0,.48,4.23,4.23,0,0,1-.12.43c0,.12-.07.25-.12.37a4.25,4.25,0,0,1-.22.43c-.06.11-.11.22-.17.32a4.33,4.33,0,0,1-.28.36c-.08.1-.15.2-.24.29a4.36,4.36,0,0,1-.33.29l-.24.2-.06.05a4.32,4.32,0,0,1-.41.24c-.11.06-.21.13-.32.17a4.33,4.33,0,0,1-.54.18l-.25.08h-.07l-1,.22c6.68,21.75,18,54.12,25,68.07-7-3.48-17-10.63-21.45-24.16a3,3,0,0,0-5.66,0c0,.06-.09.29-.19.65v23.66c.58.36,1,.56,1.07.62a3,3,0,0,0,4.25-3.34,37.14,37.14,0,0,1-.91-10.5c10.14,17,28,21.48,28.83,21.69a3,3,0,0,0,.69.08h.23a3,3,0,0,0,1.86-.85h0a3,3,0,0,0,.8-1.41c0-.06,0-.13,0-.19.24-1.32,4.4-25.2-4.35-37.08a2.07,2.07,0,0,1,.86-.12c.43,0,.87.43,1.31,1.14a3,3,0,0,0,5.38-2.39Z"/><path class="cls-3" d="M136.19,55.14a48.82,48.82,0,0,0-8.52-15.75v1.38A56.29,56.29,0,0,1,136.19,55.14Z"/><path class="cls-3" d="M148.08,84c.67,0,1.33,0,2,.06a44.65,44.65,0,0,0-15.69-18.67v5.25A65.76,65.76,0,0,1,148.08,84Z"/><path class="cls-3" d="M152.68,127.92a3,3,0,0,0,1,2.13,10.53,10.53,0,0,1,1,.93,47.63,47.63,0,0,0-.46-5.9c-.36.3-.59.54-.68.62A3,3,0,0,0,152.68,127.92Z"/><path class="cls-3" d="M139.74,96.26q.84,2.68,1.7,5.32a26.55,26.55,0,0,1,10.14,7.62,8.63,8.63,0,0,1,3-1.15c-1.78-4-4.78-9.55-9.14-13.54-2.15.42-3.86.9-4.6,1.12A2.93,2.93,0,0,0,139.74,96.26Z"/><path class="cls-1" d="M122.89,34.56c1.18,4.92,3,12.4,5.33,21.22,1.49-.18,3.28-.36,5.06-.42a21.28,21.28,0,0,0-5.75-8.81,4.32,4.32,0,0,0,.13-1V39.39A37.67,37.67,0,0,0,122.89,34.56Z"/><path class="cls-1" d="M100.59,136.38a29.09,29.09,0,0,1,2.22,4.27,66.43,66.43,0,0,0,0-37.75,85.32,85.32,0,0,1-2.7,11.12v21.85A3.11,3.11,0,0,1,100.59,136.38Z"/><path class="cls-1" d="M119,131v44.45H108.84V142.57a60.14,60.14,0,0,1-4.76,11.76,3.12,3.12,0,0,1-3.9,1.34l0,0v24.1a4.34,4.34,0,0,0,4.34,4.34h18.82a4.34,4.34,0,0,0,4.34-4.34v-40.6A31.89,31.89,0,0,1,119,131Z"/><path class="cls-1" d="M76.93,87.84H66.55V61.06A17.07,17.07,0,0,1,83.29,44l6.88,1.3a17.09,17.09,0,0,1,10.5,15.75V86.44c.61.29,1.21.6,1.82,1l0,0,.09,0,.1.08a3.08,3.08,0,0,1,.45.36l.16.16a3.11,3.11,0,0,1,.33.44l.11.16,0,.05A73.58,73.58,0,0,1,108.84,101V95.78L119,93.52v26.62a29.53,29.53,0,0,0,7.4,11.65,41.22,41.22,0,0,1,1.29-12.55V91.58l2.26-.5c-.3-1-.6-2-.88-2.89L130.49,83c-1.71-5.87-3.31-11.64-4.78-17.1V83.12l-16.34,3.65V61.06a25.55,25.55,0,0,0-2.6-11.19h9.07a12.52,12.52,0,0,1,6.67,3.89c-1.39-5.39-2.57-10.17-3.52-14v1.47h-2.57a21.17,21.17,0,0,0-2.67-.26l-4.9-.93V30.34h7.9l-.23-1a2.5,2.5,0,0,1,3.67-2.73,40,40,0,0,1,7.48,5.47V26a4.31,4.31,0,0,0-1.49-3.25,14.68,14.68,0,1,0-24.52,0A4.31,4.31,0,0,0,100.16,26V38.35l-7.73-1.46a25.57,25.57,0,0,0-8.81-1.59h-.13A25.78,25.78,0,0,0,57.86,61.06V92.18a4.34,4.34,0,0,0,4.34,4.34h3.61a3.1,3.1,0,0,1,.53-.78A40.68,40.68,0,0,1,76.93,87.84Zm37-79.15a6,6,0,1,1-6,6A6,6,0,0,1,113.91,8.69Z"/><path class="cls-1" d="M97.83,92c-7-3.29-14.09-.92-19.22,2.08a76.28,76.28,0,0,1,11.8,2.47h7C97.65,94.65,97.76,93.09,97.83,92Z"/><path class="cls-1" d="M104.09,154.33a60.14,60.14,0,0,0,4.76-11.76V101a73.58,73.58,0,0,0-5.06-12.32l0-.05-.11-.16a3.11,3.11,0,0,0-.33-.44l-.16-.16a3.08,3.08,0,0,0-.45-.36l-.1-.08-.09,0,0,0c-.6-.36-1.21-.67-1.82-1v1.4H76.93a40.68,40.68,0,0,0-10.59,7.9,3.1,3.1,0,0,0-.53.78H90.41a76.28,76.28,0,0,0-11.8-2.47c5.13-3,12.2-5.36,19.22-2.08-.06,1.1-.18,2.66-.39,4.54h2.72V114a85.32,85.32,0,0,0,2.7-11.12,66.43,66.43,0,0,1,0,37.75,29.09,29.09,0,0,0-2.22-4.27,3.11,3.11,0,0,0-.44-.52v19.79l0,0A3.12,3.12,0,0,0,104.09,154.33Z"/><path class="cls-1" d="M129,88.19c.28.94.58,1.9.88,2.89l1-.22H131l.25-.08a4.33,4.33,0,0,0,.54-.18c.11,0,.21-.12.32-.17a4.32,4.32,0,0,0,.41-.24l.06-.05q-1.07-3.56-2.1-7.09Z"/><path class="cls-1" d="M133.28,69.86l.43-3.33c0-.56,0-1.05.08-1.52a40.62,40.62,0,0,0-3.69-2.12c1.32,4.94,2.76,10.15,4.29,15.49V70.63C134,70.37,133.65,70.11,133.28,69.86Z"/><path class="cls-1" d="M133.71,66.53l-.43,3.33c.38.25.74.52,1.11.78V65.38l-.6-.38C133.74,65.47,133.71,66,133.71,66.53Z"/><path class="cls-1" d="M117.46,26.79a2.5,2.5,0,0,0-.94,2.56l.23,1H119v9.37c.94,3.88,2.13,8.66,3.52,14a12.44,12.44,0,0,1,3.21,8.34v3.83c1.47,5.45,3.08,11.23,4.78,17.1l2.1-7.5c.34,1.17,1,3.62,1.81,6.5V78.37c-1.53-5.33-3-10.55-4.29-15.49A40.62,40.62,0,0,1,133.78,65c.17-1.86.52-3.14-.16-5.15l.63,0a21,21,0,0,0-1-4.48c-1.79.07-3.57.24-5.06.42-2.3-8.82-4.14-16.29-5.33-21.22a37.67,37.67,0,0,1,4.78,4.84V32.09a40,40,0,0,0-7.48-5.47A2.5,2.5,0,0,0,117.46,26.79Z"/><path class="cls-1" d="M133.78,65l.6.38V62.09a21,21,0,0,0-.14-2.26l-.63,0C134.31,61.87,134,63.15,133.78,65Z"/><path class="cls-1" d="M130.49,83q1,3.53,2.1,7.09l.24-.2a4.36,4.36,0,0,0,.33-.29c.09-.09.16-.2.24-.29a4.33,4.33,0,0,0,.28-.36c.07-.1.11-.21.17-.32a4.25,4.25,0,0,0,.22-.43c0-.12.08-.25.12-.37a4.23,4.23,0,0,0,.12-.43,4.35,4.35,0,0,0,0-.48c0-.12,0-.23,0-.35V82c-.79-2.88-1.47-5.33-1.81-6.5Z"/><path class="cls-1" d="M126.38,131.79a29.53,29.53,0,0,1-7.4-11.65V131a31.89,31.89,0,0,0,8.69,8.19v-19.9A41.22,41.22,0,0,0,126.38,131.79Z"/><path class="cls-1" d="M91.47,66H73a2.28,2.28,0,1,0,0,4.55h18.5a2.28,2.28,0,1,0,0-4.55Z"/></g></g></svg>