<svg xmlns="http://www.w3.org/2000/svg" viewBox="0 0 176.12 210.92"><defs><style>.cls-1{fill:#eea1a6;}.cls-2{fill:#b6daa0;}</style></defs><title>back to top</title><g id="Layer_2" data-name="Layer 2"><g id="Layer_1-2" data-name="Layer 1"><path class="cls-1" d="M172.62,0H48L47.6,0h0c-1.74.2.6,6.55.64,6.46,1.14,1,3.27.52,3.27.52H169.12V177.33h-87a44.43,44.43,0,0,1,1.86,7h88.61a3.49,3.49,0,0,0,3.5-3.5V3.5A3.5,3.5,0,0,0,172.62,0Z"/><path class="cls-1" d="M120.35,38.37l-7-7a3.68,3.68,0,0,0-6.08,0l-7,7a3.67,3.67,0,0,0,5.19,5.19l1.21-1.21V51.5a3.67,3.67,0,0,0,7.33,0V42.35l1.21,1.21a3.67,3.67,0,1,0,5.19-5.19Z"/><path class="cls-1" d="M140.11,81.67H80.47a3.67,3.67,0,1,0,0,7.33h59.65a3.67,3.67,0,0,0,0-7.33Z"/><path class="cls-1" d="M140.11,96.83H80.47a3.67,3.67,0,0,0,0,7.33h59.65a3.67,3.67,0,0,0,0-7.33Z"/><path class="cls-1" d="M140.11,111.13H80.47a3.67,3.67,0,0,0,0,7.33h59.65a3.67,3.67,0,0,0,0-7.33Z"/><path class="cls-1" d="M110.29,125.42H80.47a3.67,3.67,0,1,0,0,7.33h29.82a3.67,3.67,0,1,0,0-7.33Z"/><path class="cls-2" d="M91.83,160.32c-.34-1-7-20.5-20.36-30.62a29,29,0,0,0-11.66-5.47l-8.35-1.44-1.82-.31c.56-.59,1.17-1.21,1.82-1.83,3.8-3.61,9.06-7.35,13.85-7.12a8.17,8.17,0,0,1,3.24.82A14.08,14.08,0,0,1,74.21,120a2.5,2.5,0,0,0,4.62-1.46c0-.05,0-.2,0-.47-.07-.91-.26-3.06-.7-6.07a118.89,118.89,0,0,0-3.61-16.5c-3.5-11.85-8.61-21.6-15-28.76a45.22,45.22,0,0,0-4.92-4.79,13.65,13.65,0,0,1,3.89-.66c3.71-.07,8.39,1.48,12.87,7.52a2.5,2.5,0,0,0,4.45-.94C75.84,67.5,83,34,56.12,7A79.54,79.54,0,0,0,48.86.58l-.06,0,0,0L48.5.33a2.75,2.75,0,0,0-.39-.18,1.71,1.71,0,0,0-.28-.08L47.6,0h0A2.33,2.33,0,0,0,47,0h0a.2.2,0,0,0-.13,0h-.09l-.11,0h0l-.31.11-.07,0L46,.37l-.07,0-.17.12A155.52,155.52,0,0,0,25.19,19.39C7.47,38.75,1.73,54.92,0,65.08A2.49,2.49,0,0,0,2.85,68c2.55-.35,5.78-.85,9-1.48C6.76,72.89,1.77,83.61,1.92,101a2.47,2.47,0,0,0,1,2,2.51,2.51,0,0,0,2.15.44q3.81-1,6.92-1.89c-3.94,6.22-7.14,16.24-5.38,32a2.5,2.5,0,0,0,1.33,1.94,2.53,2.53,0,0,0,2.36,0c.59-.32,3.59-2,6.84-4.23-2,7.66-3.22,19.52,1,34.49a2.54,2.54,0,0,0,1.59,1.68A2.51,2.51,0,0,0,22,167c2.34-1.69,5.37-4,8.09-6.39-1,8.43-.52,20.42,7.19,29a2.5,2.5,0,0,0,3,.54,37.76,37.76,0,0,0,8.21-5.79l.36-.35c0,.12.07.23.12.35,3.19,9.8,12.23,25.91,37.21,26.58h.24a2.22,2.22,0,0,0,.37,0h0l.34-.08h0l.3-.12a2.7,2.7,0,0,0,.29-.16,2.32,2.32,0,0,0,.5-.43.9.9,0,0,0,.15-.19,2.45,2.45,0,0,0,.24-.38s0,0,0,0a1.33,1.33,0,0,0,.07-.18l0-.07s0,0,0,0a1.67,1.67,0,0,0,.08-.3s0-.07,0-.18a75.86,75.86,0,0,0,.06-24.4,52.67,52.67,0,0,0-1.68-7,36.53,36.53,0,0,0-9.86-16.19,30.67,30.67,0,0,0-2.68-2.22c.74,0,1.5,0,2.26,0,4.1.18,8.29,1.15,10.53,3.78a2.5,2.5,0,0,0,4.27-2.41Zm-25.59-5.48a2.49,2.49,0,0,0-.43,4.75,27.67,27.67,0,0,1,13.6,11.83,34.49,34.49,0,0,1,2.74,5.91,44.43,44.43,0,0,1,1.86,7c.19,1,.35,2,.48,3a68.31,68.31,0,0,1,.39,12.85c-.06,1.09-.14,2.08-.23,3A193.17,193.17,0,0,1,68,184.33q-2.67-3.45-5.14-7a167.86,167.86,0,0,1-11.42-18.84,159.54,159.54,0,0,1-7-15.31q-1.25-3.12-2.34-6.29a170.12,170.12,0,0,1-8.88-65.45A200.09,200.09,0,0,1,44.46,16c1.42-4,2.7-7.13,3.61-9.24l.12-.28q1.71,1.46,3.27,2.94a64,64,0,0,1,20.15,52.2c-4.94-4.56-10-5.57-14.1-5.24a19.87,19.87,0,0,0-6,1.46,17.32,17.32,0,0,0-3.1,1.6,2.49,2.49,0,0,0-1,2.06,2.51,2.51,0,0,0,1.1,2,36.44,36.44,0,0,1,3.05,2.31A48.17,48.17,0,0,1,61.65,78.09c6.82,11.35,9.91,24.77,11.24,33a13.69,13.69,0,0,0-5.41-2.35,13.88,13.88,0,0,0-1.94-.23c-5.13-.24-10.1,2.44-14.08,5.53a50.12,50.12,0,0,0-7,6.71c-.92,1.06-1.48,1.79-1.57,1.92a2.49,2.49,0,0,0,1.57,4l7,1.21,7.42,1.29c5.48,1.13,10.2,4.49,14.13,8.66a67.57,67.57,0,0,1,11.26,17.3,29.8,29.8,0,0,0-8.19-1.17A46.79,46.79,0,0,0,66.24,154.84ZM54.18,184.33a34.79,34.79,0,0,1-1.78-7c0-.18,0-.33-.06-.46a5.61,5.61,0,0,0-.06-.56,2.5,2.5,0,0,0-5,.58s0,.14,0,.34c0,1-1.13,2.49-2.86,4a34.23,34.23,0,0,1-4.74,3.44c-8.12-11-4.11-28.15-3.09-31.93a4.32,4.32,0,0,0,.33-1.33,2.5,2.5,0,0,0-4.88-.93c0,.1-.13.41-.27.91-.91,1.7-5,5.54-9.8,9.28-5.18-22.45,3-36.58,3.11-36.72A2.5,2.5,0,0,0,21,121.22c-1.81,2.49-6.33,5.64-9.78,7.78C10,109.08,17.82,100.9,21.77,98.07A9,9,0,0,0,25,96a2.5,2.5,0,0,0-2.89-3.87,15.65,15.65,0,0,0-2.88,1.63c-2.68,1.09-7.5,2.59-12.26,3.9.71-22,10.5-30.94,15-33.91a8.91,8.91,0,0,0,3.16-1.9,2.5,2.5,0,0,0-2.78-4,17.87,17.87,0,0,0-2.81,1.51,99.22,99.22,0,0,1-13.9,3.09C10.87,40.22,30,20.64,40.94,11A203,203,0,0,0,28.26,71a175.07,175.07,0,0,0,9.1,67.44,164.32,164.32,0,0,0,7.1,17.26q3.2,6.69,7,13.14,2.55,4.32,5.36,8.52,2.37,3.54,4.94,7a196.43,196.43,0,0,0,18,21C63.61,202.57,56.93,191.9,54.18,184.33Z"/></g></g></svg>